<svg xmlns="http://www.w3.org/2000/svg" width="24" height="24" viewBox="0 0 24 24" fill="none"><path d="M9.036 15.472l-.384 5.408c.55 0 .788-.236 1.075-.522l2.58-2.47 5.352 3.91c.982.54 1.68.256 1.96-.91l3.552-16.68c.324-1.496-.544-2.08-1.5-1.74L1.36 9.18c-1.46.57-1.44 1.38-.25 1.75l5.44 1.7 12.64-7.98c.6-.39 1.15-.17.7.22" fill="#229ED9"/><path d="M9.036 15.472l-.384 5.408c.55 0 .788-.236 1.075-.522l2.58-2.47 5.352 3.91c.982.54 1.68.256 1.96-.91l3.552-16.68c.324-1.496-.544-2.08-1.5-1.74L1.36 9.18c-1.46.57-1.44 1.38-.25 1.75l5.44 1.7 12.64-7.98c.6-.39 1.15-.17.7.22" stroke="#229ED9" stroke-width="0.5"/></svg>